<svg xmlns="http://www.w3.org/2000/svg" version="1.1" xmlns:xlink="http://www.w3.org/1999/xlink" xmlns:svgjs="http://svgjs.dev/svgjs" width="100%" height="100%" viewBox="0 0 1000 600"><rect width="1000" height="600" x="0" y="0" fill="#f96167"/><g><rect width="333.3333333333333" height="333.3333333333333" y="202.63137241125017" fill="#fce77d" transform="matrix(0.6928695135140037,0,0,0.6928695135140037,0,44.124638784122226)" x="180.40914916992185"/><path d="M335.57692412070384 358.23792771104206L377.27553240646955 358.23792771104206Q391.5583648526825 358.23792771104206 391.5583648526825 344.28795788539776L391.5583648526825 344.28795788539776Q391.5583648526825 343.44067121485966 392.4056515232205 343.44067121485966L392.4056515232205 343.44067121485966L394.9475115348347 343.44067121485966Q395.79479820537273 343.44067121485966 395.79479820537273 344.28795788539776L395.79479820537273 344.28795788539776L395.79479820537273 383.8683494948183Q395.79479820537273 384.7156361653563 394.9475115348347 384.7156361653563L394.9475115348347 384.7156361653563L392.4056515232205 384.7156361653563Q391.5583648526825 384.7156361653563 391.5583648526825 383.8683494948183L391.5583648526825 383.8683494948183Q391.5583648526825 374.09429254539714 386.0207412559516 370.3722832426764L386.0207412559516 370.3722832426764Q383.0249776708349 368.3448472810318 377.4873540741041 368.3448472810318L377.4873540741041 368.3448472810318L335.57692412070384 368.3448472810318Q333.03506410908966 368.3448472810318 333.03506410908966 371.2195699132144L333.03506410908966 371.2195699132144L333.03506410908966 425.8998204011525Q333.03506410908966 433.1320173389595 341.68949224387126 436.58168449757864Q350.3741806168863 440.0313516561979 352.67395872263245 440.0313516561979Q354.9434765901451 440.0313516561979 354.9434765901451 440.878638326736L354.9434765901451 440.878638326736L354.9434765901451 443.45075857658355Q354.9434765901451 444.29804524712165 354.096189919607 444.29804524712165L354.096189919607 444.29804524712165L295.9965325112833 444.29804524712165Q295.1492458407452 444.29804524712165 295.1492458407452 443.45075857658355L295.1492458407452 443.45075857658355L295.1492458407452 440.878638326736Q295.1492458407452 440.0313516561979 296.9648601347553 440.0313516561979Q298.78047442876544 440.0313516561979 302.5932644461867 438.3367783151218Q306.43631470184147 436.6422049740456 309.37155781049114 433.28331853012696Q312.2765406809073 429.9244320862082 312.2765406809073 425.1433144453149L312.2765406809073 425.1433144453149L312.2765406809073 310.245189872708Q312.2765406809073 303.34585555546954 304.95356302839986 300.3500919703529L304.95356302839986 300.3500919703529Q300.6868694374761 298.56473791457626 296.54121679948634 298.56473791457626L296.54121679948634 298.56473791457626L296.1175734642173 298.56473791457626Q295.27028679367925 298.56473791457626 295.27028679367925 297.68719100580466L295.27028679367925 297.68719100580466L295.27028679367925 295.14533099419054Q295.27028679367925 294.29804432365245 296.1175734642173 294.29804432365245L296.1175734642173 294.29804432365245L396.4302632082763 294.29804432365245Q397.70119321408333 294.509865991287 398.3669184552204 294.872988850089Q399.0023834581239 295.2663719471245 399.0023834581239 296.74912362056614L399.0023834581239 296.74912362056614L399.0023834581239 322.50058635727635Q399.0023834581239 323.7715163630834 398.6090003610884 324.07411874541845Q398.2458775022864 324.4069813659869 397.27754987881434 324.4069813659869L397.27754987881434 324.4069813659869L396.00661987300725 324.4069813659869Q395.79479820537273 324.2859404130529 394.5843886760327 318.59701562515454Q393.3437189084591 312.90809083725617 390.8018588968449 309.82154653743896L390.8018588968449 309.82154653743896Q386.4443845912206 305.16146984947966 380.9067609944898 304.61678556127663L380.9067609944898 304.61678556127663Q378.6675033652106 304.40496389364216 375.49017835069293 304.40496389364216L375.49017835069293 304.40496389364216L335.1532807854348 304.40496389364216Q333.03506410908966 304.40496389364216 333.03506410908966 306.52318056998723L333.03506410908966 306.52318056998723L333.03506410908966 355.7868484141285Q333.03506410908966 358.23792771104206 335.57692412070384 358.23792771104206L335.57692412070384 358.23792771104206Z " fill="#f96167" transform="matrix(0.6928695135140037,0,0,0.6928695135140037,0,44.124638784122226)"/><path d="M647.9794325274853 440.4325882548661L647.9794325274853 440.4325882548661Q647.9794325274853 441.8382107843055 646.3981071818661 441.8382107843055L646.3981071818661 441.8382107843055L597.954330720834 441.8382107843055Q597.0758166399345 441.6625079681255 597.0758166399345 440.6082910710461L597.0758166399345 440.6082910710461Q597.0758166399345 439.00186532311545 601.2173830213181 438.47475687457575L601.2173830213181 438.47475687457575Q610.755535899656 437.0691343451365 610.755535899656 428.43459595000957L610.755535899656 428.43459595000957L610.755535899656 374.94563862438304Q610.755535899656 373.96672293423785 609.6762186002651 373.96672293423785L609.6762186002651 373.96672293423785L600.062764514993 373.96672293423785Q599.0085476179136 373.96672293423785 598.0296319277683 373.3141124741411Q597.0758166399345 372.66150201404423 597.0758166399345 371.557084312342Q597.0758166399345 370.45266661063965 598.130033537014 369.8251565528543L598.130033537014 369.8251565528543Q599.6360576756989 368.94664247195476 605.1832465865217 367.44061833326987Q610.755535899656 365.95969459689627 610.755535899656 362.495839077921L610.755535899656 362.495839077921L610.755535899656 359.58419240979674Q610.755535899656 327.83218348585615 624.5105563663118 310.7137091094707L624.5105563663118 310.7137091094707Q632.1912794736048 301.10025502419853 647.9041313205511 295.87937134342417L647.9041313205511 295.87937134342417Q652.6481073574085 294.29804599780493 657.3418825896432 294.29804599780493Q662.0105574195665 294.29804599780493 668.2856579974203 296.73278502201225Q674.5356581729628 299.14242364390816 674.5356581729628 302.58117876057213L674.5356581729628 302.58117876057213Q674.5356581729628 303.2839900252917 674.3348549544716 303.8361988761429Q674.1089513336689 304.3633073246826 673.8328469082431 305.14141979633644L673.8328469082431 305.14141979633644L670.2183889753994 312.92254451287533Q669.5155777106798 314.3281670423146 668.5366620205345 314.3281670423146L668.5366620205345 314.3281670423146Q668.2856579974203 314.3281670423146 664.7465012715107 311.54202238574743Q661.2073445456011 308.75587772918027 657.2916817850204 306.42154031421865Q653.3760190244396 304.087202899257 648.0798341367309 304.087202899257L648.0798341367309 304.087202899257Q637.7384683844276 304.087202899257 632.442283496719 309.38338778696567Q627.1460986090104 314.67957267467443 625.8408776888167 321.33117928719946Q624.5105563663118 328.007886302036 624.5105563663118 336.040015041689L624.5105563663118 336.040015041689L624.5105563663118 361.7177266062671Q624.5105563663118 362.4205378709868 625.3890704472113 362.4205378709868L625.3890704472113 362.4205378709868L642.6079464328424 362.4205378709868Q645.067785859361 362.4205378709868 645.8207979287034 362.89744551490367Q646.5738099980459 363.39945356113196 647.2766212627656 366.08519660845343Q647.9794325274853 368.7709396557749 647.9794325274853 371.0299758638023Q647.9794325274853 373.2639116695183 647.5527256881911 373.615317301878Q647.1009184465858 373.96672293423785 645.6952959171464 373.96672293423785L645.6952959171464 373.96672293423785L625.6651748726368 373.96672293423785Q624.5105563663118 373.96672293423785 624.5105563663118 374.8703374174488L624.5105563663118 374.8703374174488L624.5105563663118 426.65246738589906Q624.5105563663118 439.27796974854107 646.3981071818661 439.27796974854107L646.3981071818661 439.27796974854107Q647.9794325274853 439.45367256472093 647.9794325274853 440.4325882548661ZM715.1481091128333 442.01391360048535L715.1481091128333 434.082186470078Q714.6963018712277 432.5761623313931 713.993490606508 433.05306997531Q713.2906793417885 433.5550780215383 708.2454984771939 436.0902186549913L708.2454984771939 436.0902186549913Q691.7545341585939 444.29805021082416 680.7103571415711 444.29805021082416Q669.6912805268597 444.29805021082416 664.8469028807565 437.24483716131635L664.8469028807565 437.24483716131635Q663.064774316646 434.6092949186178 663.064774316646 430.71873256034837L663.064774316646 430.71873256034837L663.064774316646 376.8783696023621Q662.8137702935318 374.3432289689091 660.7806377063072 372.48579919786437L660.7806377063072 372.48579919786437Q658.0446938543629 370.17656218521415 655.0828463816159 370.0008593690342Q652.1209989088687 369.8251565528543 652.1209989088687 368.19363040261226Q652.1209989088687 366.5621042523703 653.5517218406195 366.2106986200105L653.5517218406195 366.2106986200105L673.7575457013089 360.38740528376206Q674.8117625983884 360.0359996514022 675.8157786908451 360.0359996514022Q676.8448951856132 360.0359996514022 676.8448951856132 361.5420237900872L676.8448951856132 361.5420237900872L676.8448951856132 420.7538728427164Q676.8448951856132 426.9285718113247 682.3167828895017 430.2669253187429Q687.7886705933903 433.6303792284725 696.2977069769602 433.6303792284725Q704.8067433605299 433.6303792284725 711.6089523869236 428.43459595000957L711.6089523869236 428.43459595000957Q713.7173861810825 426.7528689951447 715.1481091128333 424.7197364079201L715.1481091128333 424.7197364079201L715.1481091128333 376.8783696023621Q714.8720046874075 374.3432289689091 712.8388721001829 372.48579919786437L712.8388721001829 372.48579919786437Q710.1029282482386 370.17656218521415 707.1410807754917 370.0008593690342Q704.2043337050561 369.8251565528543 704.2043337050561 368.19363040261226Q704.2043337050561 366.5621042523703 705.6099562344953 366.2106986200105L705.6099562344953 366.2106986200105L725.8157800951849 360.38740528376206Q726.8699969922643 360.0359996514022 727.8991134870323 360.0359996514022Q728.9031295794889 360.0359996514022 728.9031295794889 361.7930278132013L728.9031295794889 361.7930278132013L728.9031295794889 424.4436319824945Q729.3549368210945 428.33419434076393 731.1119649828936 430.0159212956287Q732.8689931446925 431.69764825049356 736.8348567098963 431.69764825049356L736.8348567098963 431.69764825049356L741.9553387814251 431.3462426181337Q742.4824472299647 431.3462426181337 742.4824472299647 432.3502587105904Q742.4824472299647 433.354274803047 741.1772263097712 433.98178486083236L741.1772263097712 433.98178486083236L717.6832497462863 443.6956405553502Q716.6290328492066 444.22274900388993 715.8760207798643 444.22274900388993Q715.1481091128333 444.22274900388993 715.1481091128333 442.01391360048535L715.1481091128333 442.01391360048535ZM807.6179912280879 378.56009655722687L807.6179912280879 378.56009655722687Q806.5637743310085 378.384393741047 804.5306417437839 377.43057845321323L804.5306417437839 377.43057845321323Q797.2013242688506 374.0671245434835 793.059757887467 374.0671245434835Q788.9181915060835 374.0671245434835 784.3750186877173 379.23780741963515Q779.8067454670395 384.3833898934753 779.8067454670395 388.55005667717023L779.8067454670395 388.55005667717023L779.8067454670395 428.43459595000957Q779.8067454670395 435.0360017579118 787.4874685743328 437.24483716131635L787.4874685743328 437.24483716131635Q790.8509224840625 438.1233512422159 793.7625691521866 438.52495767919856Q796.6742158203108 438.9265641161812 797.5025290965875 439.27796974854107Q798.3559427751757 439.6293753809009 798.3559427751757 440.6584918756689Q798.3559427751757 441.6625079681255 797.4774286942761 441.8382107843055L797.4774286942761 441.8382107843055L753.250519821562 441.8382107843055Q752.3720057406624 441.6625079681255 752.3720057406624 440.6082910710461L752.3720057406624 440.6082910710461Q752.3720057406624 439.00186532311545 756.5135721220461 438.47475687457575L756.5135721220461 438.47475687457575Q766.0517250003838 437.0691343451365 766.0517250003838 428.43459595000957L766.0517250003838 428.43459595000957L766.0517250003838 381.74784765077663Q766.0517250003838 378.03298810868716 761.9854598259346 376.6273655792479L761.9854598259346 376.6273655792479Q760.2284316641355 375.99985552146245 758.1952990769109 375.6233494867913Q756.1621664896861 375.22174304980865 754.9824475810497 374.8703374174488Q753.7776282701018 374.51893178508897 753.4764234423646 374.19262655504065Q753.1752186146277 373.8914217273036 753.1752186146277 372.887405634847Q753.1752186146277 371.8582891400789 754.5055399371327 371.15547787535934L754.5055399371327 371.15547787535934L776.995500408161 360.5631080999419Q778.0497173052406 360.0359996514022 778.3258217306661 360.0359996514022L778.3258217306661 360.0359996514022Q779.8067454670395 360.0359996514022 779.8067454670395 362.14443344556116L779.8067454670395 362.14443344556116L779.8067454670395 376.45166276306804Q779.8067454670395 377.50587966014746 780.3589543178907 377.50587966014746L780.3589543178907 377.50587966014746Q781.0617655826104 377.50587966014746 783.9734122507346 373.3643132787639L783.9734122507346 373.3643132787639Q792.3569466227473 361.61732499702146 797.8288343266361 361.61732499702146L797.8288343266361 361.61732499702146Q800.9161838109401 361.61732499702146 807.316786400351 364.10226482585153Q813.6922885874505 366.5621042523703 813.6922885874505 368.2438312072351L813.6922885874505 368.2438312072351Q813.6922885874505 370.2769637944598 811.6842564025374 374.41853017584333Q809.6511238153128 378.56009655722687 807.6179912280879 378.56009655722687ZM884.6511259218223 414.05206542556846L884.6511259218223 414.05206542556846L884.4754231056424 395.4275669104982Q884.4754231056424 384.03198426111544 882.5426921276635 379.4386106381264Q880.5848607473729 374.8703374174488 877.5979128723145 372.5108996001758Q874.5858645949447 370.17656218521415 869.5155833280387 370.17656218521415Q864.4453020611327 370.17656218521415 848.029638949467 378.1333897179328L848.029638949467 378.1333897179328Q845.8208035460625 379.4386106381264 845.7455023391283 380.5932291444516L845.7455023391283 380.5932291444516L845.7455023391283 428.0831903176497Q845.7455023391283 436.99383313820226 855.2585548151546 438.2990540583959L855.2585548151546 438.2990540583959Q859.4252215988497 438.9265641161812 859.4252215988497 440.28198584099766Q859.4252215988497 441.6625079681255 858.5216071156387 441.8382107843055L858.5216071156387 441.8382107843055L819.1641762913391 441.8382107843055Q818.2856622104396 441.6625079681255 818.2856622104396 440.6082910710461L818.2856622104396 440.6082910710461Q818.2856622104396 438.9265641161812 822.4523289941346 438.2990540583959L822.4523289941346 438.2990540583959Q831.965381470161 436.99383313820226 831.965381470161 428.0831903176497L831.965381470161 428.0831903176497L831.965381470161 377.43057845321323Q831.965381470161 373.71571891112376 827.9242166980232 372.3100963816844L827.9242166980232 372.3100963816844Q826.1420881339127 371.68258632389905 824.1089555466881 371.2809798869164Q822.0758229594633 370.8793734499337 820.8961040508268 370.5279678175739Q819.7163851421903 370.17656218521415 819.3900799121418 369.8753573574771Q819.0888750844049 369.5741525297401 819.0888750844049 368.5450360349721Q819.0888750844049 367.5410199425155 820.41919640691 366.8382086777958L820.41919640691 366.8382086777958L842.9091568779381 356.2458389023785Q843.9633737750178 355.7187304538388 844.2394782004433 355.7187304538388L844.2394782004433 355.7187304538388Q845.7455023391283 355.7187304538388 845.7455023391283 357.82716424799764L845.7455023391283 357.82716424799764L845.7455023391283 371.6072851169648Q845.9965063622424 372.48579919786437 846.4483136038477 372.48579919786437L846.4483136038477 372.48579919786437Q846.9754220523876 372.48579919786437 850.2384743528717 370.8793734499337L850.2384743528717 370.8793734499337Q857.8187958509191 367.08921270091 865.4995189582123 363.5751563773118Q873.1802420655054 360.0359996514022 878.2003225277886 360.0359996514022L878.2003225277886 360.0359996514022Q898.6069496069692 360.0359996514022 898.6069496069692 397.18459507229727L898.6069496069692 397.18459507229727L897.8037367330039 422.962708246121L897.8037367330039 428.0831903176497Q897.8037367330039 434.96070055097755 904.6812469663319 437.0691343451365L904.6812469663319 437.0691343451365Q907.592893634456 438.0480500352817 910.2786366817775 438.44965647226434Q912.9894801314103 438.8261625069356 913.8177934076871 439.20266854160684Q914.6461066839638 439.5540741739667 914.6461066839638 440.6082910710461Q914.6461066839638 441.6625079681255 913.7675926030643 441.8382107843055L913.7675926030643 441.8382107843055L871.2475110875264 441.8382107843055Q870.3689970066268 441.6625079681255 870.3689970066268 440.6082910710461L870.3689970066268 440.6082910710461Q870.3689970066268 438.9265641161812 874.5105633880105 438.2990540583959L874.5105633880105 438.2990540583959Q883.9483146571026 436.99383313820226 883.9483146571026 427.35527865061874L883.9483146571026 427.35527865061874Q884.6511259218223 422.962708246121 884.6511259218223 414.05206542556846ZM961.9603650409822 441.8382107843055L922.6029342166826 441.8382107843055Q921.724420135783 441.6625079681255 921.724420135783 440.6082910710461L921.724420135783 440.6082910710461Q921.724420135783 439.00186532311545 925.8659865171667 438.47475687457575L925.8659865171667 438.47475687457575Q935.4041393955044 437.0691343451365 935.4041393955044 428.43459595000957L935.4041393955044 428.43459595000957L935.4041393955044 381.74784765077663Q935.4041393955044 378.03298810868716 931.3378742210552 376.6273655792479L931.3378742210552 376.6273655792479Q929.5808460592561 375.99985552146245 927.5477134720313 375.6233494867913Q925.5145808848067 375.22174304980865 924.3097615738589 374.8703374174488Q923.1300426652224 374.51893178508897 922.8288378374853 374.19262655504065Q922.5025326074369 373.8914217273036 922.5025326074369 372.887405634847Q922.5025326074369 371.8582891400789 923.8328539299418 371.15547787535934L923.8328539299418 371.15547787535934L946.3228144009702 360.5631080999419Q947.402131700361 360.0359996514022 947.6531357234753 360.0359996514022L947.6531357234753 360.0359996514022Q949.1591598621601 360.0359996514022 949.1591598621601 362.14443344556116L949.1591598621601 362.14443344556116L949.1591598621601 428.43459595000957Q949.1591598621601 437.0691343451365 958.6973127404981 438.47475687457575L958.6973127404981 438.47475687457575Q962.8388791218815 439.00186532311545 962.8388791218815 440.3321866456205Q962.8388791218815 441.6625079681255 961.9603650409822 441.8382107843055L961.9603650409822 441.8382107843055ZM941.0015291109501 335.2368021677237Q937.3368703734834 335.2368021677237 934.5507257169163 332.9526655573849Q931.7645810603492 330.64342854473466 931.7645810603492 326.55206296797394Q931.7645810603492 322.4355969889018 934.4252237053593 320.05105876931725Q937.0607659480579 317.6916209520442 940.7254246855246 317.6916209520442Q944.3900834229912 317.6916209520442 946.9001236541328 320.50286601092273Q949.4352642875858 323.33921147211277 949.4352642875858 326.60226377259676Q949.4352642875858 329.86531607308075 947.0507260680013 332.5510591204022Q944.6661878484167 335.2368021677237 941.0015291109501 335.2368021677237ZM1021.4232181167256 373.96672293423785L994.8669924712478 373.96672293423785Q994.3398840227082 373.96672293423785 994.3398840227082 374.7699358082032L994.3398840227082 374.7699358082032L994.3398840227082 423.4898166946607Q994.3398840227082 428.7860015823694 996.6742214376698 431.7729494574278Q999.0085588526315 434.7849977347977 1002.6230167854753 434.7849977347977Q1006.2625751206306 434.7849977347977 1008.948318167952 433.5801784238497Q1011.6340612152735 432.40045951521324 1013.6169929978753 430.994836985774Q1015.5999247804771 429.5641140540232 1017.2063505284077 428.38439514538675Q1018.787675874027 427.17957583443877 1020.0175955872862 427.17957583443877Q1021.2475153005455 427.17957583443877 1021.2475153005455 427.8070858922241L1021.2475153005455 427.8070858922241Q1021.2475153005455 429.91551968638305 1020.8208084612515 430.5430297441685L1020.8208084612515 430.5430297441685Q1010.2284386858341 444.22274900388993 1000.3890809797592 444.22274900388993Q990.5497232736843 444.22274900388993 985.5547432137128 437.99784923065886Q980.5848635560524 431.7729494574278 980.5848635560524 423.13841106230086L980.5848635560524 423.13841106230086L980.5848635560524 373.96672293423785L973.9583573458387 373.96672293423785Q971.4734175170086 373.96672293423785 971.3479155054515 372.38539758861873Q971.2224134938945 370.8040722429995 971.8248231493685 370.352265001394L971.8248231493685 370.352265001394Q976.5185983816032 367.3653171263355 984.726429937436 359.58419240979674L984.726429937436 359.58419240979674Q985.6049440183356 358.63037712196297 987.1109681570206 356.6725457416726Q988.591891893394 354.7398147636935 991.4784381592067 351.3763608539639Q994.3398840227082 348.03800734654567 995.845908161393 348.03800734654567Q997.351932300078 348.03800734654567 997.351932300078 349.26792705980495L997.351932300078 349.26792705980495Q997.351932300078 349.4436298759849 994.3398840227082 360.83921252536754L994.3398840227082 360.83921252536754Q994.3398840227082 362.4205378709868 995.7455065521474 362.495839077921L995.7455065521474 362.495839077921L1018.2605674254871 362.495839077921Q1022.126029381445 362.495839077921 1022.126029381445 373.43961448569814L1022.126029381445 373.43961448569814Q1022.126029381445 373.96672293423785 1021.4232181167256 373.96672293423785L1021.4232181167256 373.96672293423785ZM1090.8760313124121 442.01391360048535L1090.8760313124121 434.082186470078Q1090.4242240708068 432.5761623313931 1089.7214128060873 433.05306997531Q1089.0186015413678 433.5550780215383 1083.9985210790846 436.0902186549913L1083.9985210790846 436.0902186549913Q1067.4824563581733 444.29805021082416 1056.4633797434617 444.29805021082416Q1045.44430312875 444.29805021082416 1040.5748250803358 437.24483716131635L1040.5748250803358 437.24483716131635Q1038.8177969185367 434.6092949186178 1038.8177969185367 430.71873256034837L1038.8177969185367 430.71873256034837L1038.8177969185367 376.8783696023621Q1038.541692493111 374.3432289689091 1036.5085599058862 372.48579919786437L1036.5085599058862 372.48579919786437Q1033.7726160539419 370.17656218521415 1030.8358689835063 370.0008593690342Q1027.8740215107596 369.8251565528543 1027.8740215107596 368.19363040261226Q1027.8740215107596 366.5621042523703 1029.2796440401985 366.2106986200105L1029.2796440401985 366.2106986200105L1049.4854679008881 360.38740528376206Q1050.5396847979678 360.0359996514022 1051.5688012927358 360.0359996514022Q1052.5728173851921 360.0359996514022 1052.5728173851921 361.5420237900872L1052.5728173851921 361.5420237900872L1052.5728173851921 420.7538728427164Q1052.5728173851921 426.9285718113247 1058.0447050890807 430.2669253187429Q1063.5165927929693 433.6303792284725 1072.0256291765395 433.6303792284725Q1080.5597659624204 433.6303792284725 1087.3368745865027 428.43459595000957L1087.3368745865027 428.43459595000957Q1089.4704087829732 426.7528689951447 1090.8760313124121 424.7197364079201L1090.8760313124121 424.7197364079201L1090.8760313124121 376.8783696023621Q1090.625027289298 374.3432289689091 1088.5918947020737 372.48579919786437L1088.5918947020737 372.48579919786437Q1085.8559508501294 370.17656218521415 1082.8941033773822 370.0008593690342Q1079.9322559046354 369.8251565528543 1079.9322559046354 368.19363040261226Q1079.9322559046354 366.5621042523703 1081.3378784340744 366.2106986200105L1081.3378784340744 366.2106986200105L1101.543702294764 360.38740528376206Q1102.6230195941548 360.0359996514022 1103.6270356866116 360.0359996514022Q1104.6561521813796 360.0359996514022 1104.6561521813796 361.7930278132013L1104.6561521813796 361.7930278132013L1104.6561521813796 424.4436319824945Q1105.0828590206734 428.33419434076393 1106.8398871824725 430.0159212956287Q1108.6220157465832 431.69764825049356 1112.5878793117868 431.69764825049356L1112.5878793117868 431.69764825049356L1117.7083613833156 431.3462426181337Q1118.2354698318554 431.3462426181337 1118.2354698318554 432.3502587105904Q1118.2354698318554 433.354274803047 1116.90514850935 433.98178486083236L1116.90514850935 433.98178486083236L1093.4362723481768 443.6956405553502Q1092.3820554510976 444.22274900388993 1091.6290433817549 444.22274900388993Q1090.8760313124121 444.22274900388993 1090.8760313124121 442.01391360048535L1090.8760313124121 442.01391360048535ZM1183.3459134276673 378.56009655722687L1183.3459134276673 378.56009655722687Q1182.2916965305876 378.384393741047 1180.2585639433632 377.43057845321323L1180.2585639433632 377.43057845321323Q1172.9543468707411 374.0671245434835 1168.7876800870463 374.0671245434835Q1164.6461137056626 374.0671245434835 1160.1029408872964 379.23780741963515Q1155.5597680689302 384.3833898934753 1155.5597680689302 388.55005667717023L1155.5597680689302 388.55005667717023L1155.5597680689302 428.43459595000957Q1155.5597680689302 435.0360017579118 1163.2404911762233 437.24483716131635L1163.2404911762233 437.24483716131635Q1166.5788446836418 438.1233512422159 1169.4904913517657 438.52495767919856Q1172.4272384222013 438.9265641161812 1173.255551698478 439.27796974854107Q1174.0838649747548 439.6293753809009 1174.0838649747548 440.6584918756689Q1174.0838649747548 441.6625079681255 1173.2053508938552 441.8382107843055L1173.2053508938552 441.8382107843055L1129.0035424234525 441.8382107843055Q1128.125028342553 441.6625079681255 1128.125028342553 440.6082910710461L1128.125028342553 440.6082910710461Q1128.125028342553 439.00186532311545 1132.2665947239366 438.47475687457575L1132.2665947239366 438.47475687457575Q1141.8047476022743 437.0691343451365 1141.8047476022743 428.43459595000957L1141.8047476022743 428.43459595000957L1141.8047476022743 381.74784765077663Q1141.8047476022743 378.03298810868716 1137.7384824278251 376.6273655792479L1137.7384824278251 376.6273655792479Q1135.981454266026 375.99985552146245 1133.9483216788012 375.6233494867913Q1131.9151890915768 375.22174304980865 1130.7103697806288 374.8703374174488Q1129.5306508719923 374.51893178508897 1129.2294460442554 374.19262655504065Q1128.9031408142068 373.8914217273036 1128.9031408142068 372.887405634847Q1128.9031408142068 371.8582891400789 1130.2334621367118 371.15547787535934L1130.2334621367118 371.15547787535934L1152.7485230100515 360.5631080999419Q1153.8027399071311 360.0359996514022 1154.0537439302452 360.0359996514022L1154.0537439302452 360.0359996514022Q1155.5597680689302 360.0359996514022 1155.5597680689302 362.14443344556116L1155.5597680689302 362.14443344556116L1155.5597680689302 376.45166276306804Q1155.5597680689302 377.50587966014746 1156.08687651747 377.50587966014746L1156.08687651747 377.50587966014746Q1156.7896877821895 377.50587966014746 1159.7013344503139 373.3643132787639L1159.7013344503139 373.3643132787639Q1168.0848688223264 361.61732499702146 1173.556756526215 361.61732499702146L1173.556756526215 361.61732499702146Q1176.6441060105194 361.61732499702146 1183.0447085999303 364.10226482585153Q1189.4453111893413 366.5621042523703 1189.4453111893413 368.2438312072351L1189.4453111893413 368.2438312072351Q1189.4453111893413 370.2769637944598 1187.4121786021165 374.41853017584333Q1185.3790460148916 378.56009655722687 1183.3459134276673 378.56009655722687ZM1261.0065581791869 395.3271653012524L1209.8268378662106 395.3271653012524Q1208.3208137275255 395.3271653012524 1208.3208137275255 401.7779686952863L1208.3208137275255 401.7779686952863Q1208.3208137275255 415.4576879550077 1216.4533440764244 424.7197364079201Q1224.5607740230116 433.98178486083236 1236.6089671324908 433.98178486083236Q1248.6571602419704 433.98178486083236 1259.7766384659276 423.56511790159493L1259.7766384659276 423.56511790159493Q1259.9523412821072 423.38941508541507 1260.228445707533 423.38941508541507L1260.228445707533 423.38941508541507L1260.6551525468271 423.38941508541507Q1261.1822609953665 423.38941508541507 1261.6842690415951 424.2428287640032Q1262.1611766855121 425.0711420402798 1262.5878835248059 425.34724646570544L1262.5878835248059 425.34724646570544Q1252.3720197840598 437.7719456098562 1238.5165977081583 442.54102204902506L1238.5165977081583 442.54102204902506Q1233.7475212689897 444.22274900388993 1227.7485251165613 444.22274900388993Q1221.7495289641329 444.22274900388993 1215.5748299955249 440.9094958987831Q1209.4001310269164 437.5962427936762 1204.9824602201074 432.22475669903326L1204.9824602201074 432.22475669903326Q1195.6200101579493 421.0048768658305 1195.6200101579493 404.2880089264278Q1195.6200101579493 387.57114098702505 1205.8107734963842 373.791020118058Q1216.001536834819 360.0359996514022 1233.8228224759237 360.0359996514022L1233.8228224759237 360.0359996514022Q1246.6240276547455 360.0359996514022 1254.7565580036444 371.45668270309636Q1262.8639879502316 382.9024661571018 1262.8639879502316 391.5370045522287L1262.8639879502316 391.5370045522287Q1262.8639879502316 395.3271653012524 1261.0065581791869 395.3271653012524L1261.0065581791869 395.3271653012524ZM1210.8057535563557 385.81411282522595L1210.8057535563557 386.8683297223055Q1210.8057535563557 388.55005667717023 1212.3870789019747 388.55005667717023L1212.3870789019747 388.55005667717023L1245.6451119646003 388.55005667717023Q1247.954348977251 388.55005667717023 1247.954348977251 385.81411282522595L1247.954348977251 385.81411282522595Q1247.954348977251 379.4386106381264 1242.2565576525594 372.7870040256014Q1236.558766327868 366.13539741307625 1229.7816577037856 366.13539741307625L1229.7816577037856 366.13539741307625Q1223.1551514935722 366.13539741307625 1217.7334645943065 372.1343935655045Q1212.3117776950407 378.1333897179328 1210.8057535563557 385.81411282522595L1210.8057535563557 385.81411282522595Z " fill="#fce77d" transform="matrix(0.6928695135140037,0,0,0.6928695135140037,0,44.124638784122226)"/></g></svg>